<svg width="178" height="180" viewBox="0 0 178 180" fill="none" xmlns="http://www.w3.org/2000/svg">
<path fill-rule="evenodd" clip-rule="evenodd" d="M176.803 95.9706C176.738 96.9653 176.677 97.9555 176.582 98.9368C176.525 99.5219 176.443 100.098 176.378 100.674C176.274 101.561 176.174 102.443 176.048 103.316C175.957 103.928 175.848 104.536 175.744 105.144C175.605 105.976 175.471 106.809 175.31 107.633C175.189 108.254 175.05 108.866 174.915 109.483C174.742 110.284 174.568 111.08 174.373 111.873C174.221 112.494 174.051 113.106 173.887 113.723C173.678 114.497 173.47 115.271 173.24 116.041C172.833 117.413 172.393 118.774 171.921 120.123C171.237 122.065 170.491 123.984 169.685 125.875C169.123 127.172 168.539 128.458 167.932 129.733C167.585 130.448 167.225 131.151 166.864 131.853C166.578 132.402 166.296 132.946 166.001 133.491C165.617 134.191 165.225 134.885 164.825 135.575C164.521 136.097 164.221 136.619 163.909 137.137C163.488 137.835 163.05 138.519 162.607 139.203C162.29 139.693 161.982 140.189 161.656 140.67C161.188 141.372 160.697 142.056 160.207 142.745C159.886 143.195 159.578 143.645 159.248 144.091C158.71 144.82 158.15 145.527 157.585 146.238C157.286 146.62 156.995 147.008 156.691 147.386C156.001 148.232 155.285 149.056 154.569 149.879C154.37 150.1 154.187 150.334 153.988 150.554C153.055 151.594 152.104 152.611 151.123 153.606C150.95 153.786 150.759 153.957 150.581 154.137C149.782 154.941 148.969 155.729 148.142 156.5C147.79 156.829 147.426 157.135 147.074 157.454C146.397 158.062 145.724 158.67 145.03 159.255C144.609 159.61 144.179 159.948 143.754 160.295C143.103 160.821 142.456 161.348 141.792 161.861C141.328 162.217 140.855 162.554 140.386 162.901L138.915 163.967C139.054 163.864 139.206 163.778 139.349 163.679C139.184 163.796 139.015 163.895 138.85 164.012C138.711 164.111 138.576 164.215 138.437 164.309C137.938 164.656 137.435 164.989 136.931 165.322C136.075 165.895 135.208 166.452 134.332 166.992L134.028 167.172C134.093 167.136 134.162 167.1 134.223 167.06L133.316 167.604C132.674 167.991 132.032 168.369 131.381 168.738L130.526 169.207C130.026 169.481 129.519 169.751 129.011 170.017L128.746 170.152C128.356 170.354 127.974 170.561 127.579 170.759C127.049 171.02 126.52 171.282 125.982 171.538L125.548 171.736C125.07 171.961 124.593 172.182 124.111 172.398L123.903 172.492C123.482 172.681 123.052 172.861 122.627 173.046C121.885 173.364 121.139 173.669 120.387 173.96C119.88 174.158 119.376 174.351 118.868 174.54L118.213 174.788C117.653 174.99 117.085 175.184 116.516 175.373C116.052 175.531 115.587 175.688 115.119 175.837L114.932 175.895C114.428 176.057 113.925 176.21 113.417 176.359L111.968 176.782C111.347 176.953 110.731 177.128 110.106 177.29L109.789 177.362L109.008 177.56C109.147 177.529 109.277 177.484 109.416 177.452L108.513 177.664C108.674 177.623 108.843 177.601 109.008 177.56C108.626 177.655 108.24 177.727 107.858 177.817L107.801 177.831C107.181 177.97 106.564 178.119 105.939 178.245C105.293 178.375 104.642 178.488 103.991 178.6C103.609 178.668 103.231 178.753 102.849 178.816C103.027 178.785 103.201 178.74 103.379 178.708L102.437 178.87C102.576 178.848 102.715 178.839 102.849 178.816L102.211 178.911L101.699 179.001C100.836 179.131 99.9633 179.23 99.0909 179.338C98.5267 179.406 97.9625 179.491 97.3896 179.545L97.2595 179.563H97.177C96.9426 179.586 96.6996 179.595 96.4652 179.617C95.9271 179.667 95.3889 179.698 94.8507 179.739C93.0236 179.874 91.1834 179.959 89.3259 179.977C89.161 179.977 89.0048 180 88.8442 180H88.1802C88.0239 180 87.8764 179.982 87.7201 179.977C85.8201 179.956 83.9211 179.874 82.026 179.73C81.5096 179.689 80.9888 179.658 80.4723 179.613C80.264 179.59 80.0513 179.586 79.8387 179.563H79.7606C78.2147 179.4 76.6734 179.193 75.1385 178.942C75.3598 178.978 75.5855 178.996 75.8068 179.028C75.2556 178.942 74.6914 178.893 74.1446 178.803L73.3634 178.659C73.5717 178.695 73.7757 178.753 73.984 178.789C73.6108 178.726 73.2462 178.636 72.873 178.569L72.7428 178.546C72.5128 178.506 72.2914 178.447 72.0657 178.407C70.5961 178.135 69.133 177.826 67.678 177.479L68.0946 177.565L67.4089 177.403L67.678 177.479C67.0487 177.326 66.4368 177.133 65.8118 176.962L65.9116 176.989C65.8465 176.975 65.7858 176.953 65.7207 176.935L65.8118 176.962C64.5489 176.624 63.2859 176.287 62.0447 175.895L61.8884 175.85C61.7192 175.796 61.5543 175.733 61.385 175.675L61.3069 175.648C60.6081 175.418 59.9224 175.152 59.228 174.905L60.1307 175.224C59.6533 175.058 59.1803 174.882 58.7072 174.707L59.228 174.905C58.1647 174.527 57.1014 174.149 56.0598 173.73L55.5347 173.519C55.4609 173.487 55.3914 173.451 55.3177 173.424C54.6037 173.126 53.8933 172.818 53.1867 172.501C53.6511 172.708 54.1198 172.902 54.5842 173.1C53.8942 172.807 53.2084 172.497 52.5271 172.191C52.7484 172.29 52.9654 172.402 53.1867 172.501C52.4576 172.177 51.7198 171.862 50.9994 171.516L50.8431 171.448C50.7477 171.403 50.6478 171.363 50.5523 171.313C50.2095 171.151 49.884 170.953 49.5455 170.786C48.8511 170.435 48.1567 170.093 47.4709 169.729C48.0568 170.039 48.6558 170.327 49.2504 170.629C48.399 170.198 47.554 169.754 46.7158 169.297C46.9718 169.436 47.2149 169.589 47.4709 169.729C46.8937 169.418 46.3208 169.112 45.7523 168.792L45.544 168.68C45.3313 168.563 45.123 168.432 44.9147 168.311C44.6413 168.158 44.3852 167.982 44.1161 167.82L43.8861 167.685L44.0033 167.753C43.0615 167.195 42.1327 166.628 41.217 166.038C41.4904 166.213 41.7508 166.411 42.0286 166.587C41.5816 166.308 41.1476 166.011 40.7092 165.727L40.6702 165.7L40.0018 165.264C39.6633 165.039 39.3421 164.791 39.0079 164.562C38.2918 164.071 37.5584 163.607 36.8553 163.094C37.3804 163.477 37.9403 163.814 38.4741 164.183C37.5367 163.535 36.5906 162.901 35.6792 162.212L35.8701 162.361C35.805 162.316 35.7443 162.262 35.6792 162.212C34.8285 161.564 33.9996 160.889 33.1706 160.214L33.1316 160.182L33.1229 160.178C32.7583 159.876 32.3851 159.588 32.0205 159.282L32.0162 159.277L31.873 159.151C30.8661 158.296 29.8679 157.423 28.9001 156.523L28.822 156.455L28.7612 156.397C28.4053 156.068 28.0755 155.722 27.7283 155.384C27.0426 154.727 26.3568 154.07 25.6928 153.39L25.6104 153.309C25.3369 153.03 25.0765 152.737 24.8075 152.454C25.0245 152.683 25.2284 152.926 25.4498 153.151C25.2284 152.922 25.0201 152.679 24.7988 152.445L24.4429 152.058C23.8396 151.41 23.232 150.77 22.6461 150.104L22.6374 150.091C22.3033 149.713 21.9778 149.326 21.6523 148.943L21.4006 148.641C20.5168 147.595 19.6544 146.53 18.8139 145.446C18.7271 145.338 18.6446 145.221 18.5622 145.108C17.7458 144.047 16.9528 142.966 16.1839 141.867C16.0884 141.728 16.0016 141.584 15.9061 141.449C15.4184 140.737 14.9395 140.018 14.4696 139.293C14.2309 138.924 13.9835 138.555 13.7491 138.177C13.6406 138.006 13.5451 137.83 13.441 137.659C12.9991 136.943 12.568 136.22 12.1477 135.489C12.0956 135.39 12.0348 135.296 11.9784 135.201C11.8178 134.927 11.6529 134.657 11.4967 134.378C11.3795 134.171 11.2753 133.955 11.1625 133.743C10.7559 132.996 10.3595 132.242 9.97333 131.484C9.78671 131.128 9.59141 130.781 9.41347 130.421C9.30063 130.196 9.2008 129.967 9.09231 129.742C8.70765 128.945 8.33724 128.14 7.98126 127.329C7.83804 127.019 7.68614 126.708 7.54727 126.393L7.32158 125.848C6.91796 124.912 6.54038 123.962 6.17148 123.008L5.86768 122.248L5.74182 121.892C5.31367 120.742 4.90995 119.581 4.53096 118.413L4.3834 117.981L4.34 117.841C3.26694 114.497 2.38867 111.09 1.70996 107.637L1.67524 107.457C1.6058 107.102 1.55806 106.742 1.49296 106.39C1.3018 105.37 1.12817 104.347 0.972161 103.321L0.907061 102.925C0.83762 102.421 0.79422 101.907 0.73346 101.399C0.612374 100.477 0.506752 99.5522 0.41664 98.6262C0.40796 98.5362 0.3906 98.4462 0.38626 98.3516C0.37324 98.2301 0.37758 98.1041 0.3689 97.9781C0.129792 95.3251 0.00669954 92.6623 0 89.9977C0 88.841 0.0434 87.6887 0.0868 86.541C0.11284 85.8883 0.13888 85.2357 0.1736 84.583C0.22568 83.7143 0.29512 82.8546 0.3689 81.9949C0.32116 82.5171 0.25606 83.0392 0.22134 83.5658C0.25606 83.0347 0.3255 82.5126 0.3689 81.9814C0.42532 81.3333 0.48174 80.6897 0.55118 80.046C0.64666 79.1908 0.75516 78.3356 0.872341 77.4849C0.959141 76.8458 1.04594 76.2112 1.14576 75.581V75.5765C1.2803 74.7348 1.4322 73.8976 1.58844 73.0649V73.0559C1.70562 72.4303 1.8228 71.8047 1.953 71.1835V71.179C2.12968 70.3511 2.31777 69.5258 2.5172 68.7035C2.66042 68.0913 2.80798 67.4747 2.96856 66.867V66.858C3.18122 66.0479 3.4069 65.2512 3.64126 64.4545L3.6456 64.4365C3.8192 63.8334 3.9928 63.2257 4.17942 62.6316L4.18376 62.6181C4.43114 61.8304 4.69588 61.0517 4.96496 60.2731L4.97364 60.2506C5.17762 59.6609 5.37726 59.0713 5.59426 58.4862L5.5986 58.4727C5.8807 57.703 6.18016 56.9468 6.47962 56.1906L6.49264 56.1591C6.72266 55.583 6.95268 55.0024 7.19138 54.4308L7.20006 54.4172C7.52513 53.6628 7.85934 52.9125 8.20261 52.1667C8.45866 51.6041 8.71039 51.037 8.97947 50.4834L8.98814 50.4654C9.33535 49.7407 9.6999 49.0295 10.0688 48.3184L10.0905 48.2734C10.3726 47.7287 10.6504 47.1751 10.9455 46.635L10.9542 46.617C11.3317 45.9193 11.731 45.2307 12.126 44.542L12.1563 44.4925C12.4645 43.9614 12.7683 43.4258 13.0851 42.8992L13.0981 42.8811C13.5061 42.206 13.9314 41.5443 14.3567 40.8827L14.3914 40.8242C14.7256 40.3111 15.0511 39.7935 15.394 39.2848L15.407 39.2623C15.841 38.6142 16.2967 37.9795 16.7481 37.3404L16.7958 37.2774C17.1517 36.7778 17.4989 36.2782 17.8634 35.7876L17.8808 35.765C18.3408 35.1439 18.8226 34.5363 19.3043 33.9241L19.3564 33.8566C19.734 33.375 20.1072 32.8934 20.4935 32.4208C20.4979 32.4123 20.5038 32.4047 20.5108 32.3983C20.9969 31.8042 21.5047 31.219 22.0082 30.6384L22.0733 30.5664C22.4725 30.1028 22.8631 29.6392 23.2711 29.1846L23.2928 29.1666C23.8049 28.5949 24.3387 28.0413 24.8639 27.4877L24.9377 27.4112C25.3586 26.9701 25.7709 26.5245 26.2006 26.0924C26.2076 26.086 26.2135 26.0784 26.218 26.0699L26.3742 25.9078L26.2266 26.0654C26.691 25.5973 27.1728 25.1472 27.6458 24.6881C27.2552 25.0661 26.8516 25.4307 26.4653 25.8133C26.921 25.3587 27.3984 24.9221 27.8628 24.4765L27.9453 24.4C28.388 23.9769 28.822 23.5493 29.269 23.1397L29.2907 23.1217C29.7724 22.6761 30.2759 22.253 30.7706 21.8164C30.354 22.181 29.9287 22.5276 29.5207 22.9012C30.0068 22.4601 30.5102 22.0415 31.0006 21.6139C31.0316 21.5858 31.0634 21.5587 31.0961 21.5328C31.5518 21.1368 32.0032 20.7317 32.4676 20.3446L32.4893 20.3266L32.7149 20.133L32.4936 20.3221C32.997 19.9035 33.5135 19.5029 34.0256 19.0978C33.5916 19.4444 33.1446 19.7775 32.7149 20.133C33.2227 19.7099 33.7522 19.3093 34.273 18.8998L34.3728 18.8187C34.8502 18.4452 35.3146 18.0671 35.7963 17.7025L35.8137 17.689L36.035 17.5179L35.8267 17.68C36.3519 17.2839 36.8857 16.9103 37.4152 16.5277C36.9595 16.8608 36.4864 17.1759 36.035 17.5179C36.5689 17.1129 37.1244 16.7348 37.6712 16.3477L37.7841 16.2667C38.2701 15.9156 38.7519 15.56 39.2466 15.2224L39.264 15.2089L39.4767 15.0604L39.2857 15.1954C39.8282 14.8263 40.3881 14.4798 40.9349 14.1197C40.4532 14.4347 39.9541 14.7363 39.4767 15.0604C40.0409 14.6778 40.6181 14.3222 41.191 13.9531L41.3168 13.8766C41.8159 13.5525 42.3107 13.2195 42.8185 12.9089L42.8358 12.8999C42.9022 12.8538 42.9703 12.8102 43.0398 12.7694L42.8662 12.8819C43.4304 12.5353 44.0076 12.2112 44.5805 11.8782C44.0684 12.1752 43.5432 12.4588 43.0398 12.7694C43.6257 12.4093 44.2333 12.0762 44.8279 11.7341L44.9668 11.6531C45.4789 11.3606 45.9823 11.0545 46.4988 10.7664L46.5161 10.7574L46.7114 10.6494L46.5552 10.7394C47.1454 10.4153 47.753 10.1138 48.3476 9.80321C47.8051 10.0868 47.2496 10.3523 46.7114 10.6494C47.3277 10.3118 47.957 10.0058 48.5776 9.68168C48.6295 9.65889 48.6802 9.63335 48.7296 9.60516C49.2504 9.3396 49.7625 9.06054 50.2919 8.80398L50.305 8.79498L50.4916 8.70046L50.3571 8.77247C50.9777 8.47091 51.6113 8.19184 52.2406 7.90378C51.6591 8.17384 51.0688 8.4214 50.4916 8.70046C51.1339 8.38989 51.7892 8.11083 52.4403 7.81376L52.6052 7.73724C53.1303 7.49869 53.6511 7.24663 54.1849 7.02158L54.1979 7.01258C54.2566 6.98899 54.3145 6.96347 54.3716 6.93606L54.2587 6.99007C54.9184 6.70651 55.5911 6.45445 56.2595 6.18889C55.6301 6.43645 54.9965 6.675 54.3716 6.93606C55.0399 6.6525 55.7256 6.40044 56.4027 6.13038L56.5893 6.05836C57.1188 5.84682 57.6396 5.62627 58.1777 5.42372H58.1864C58.2404 5.40002 58.2954 5.37899 58.3513 5.36071L58.2559 5.39671C58.972 5.13115 59.7054 4.8971 60.4302 4.64955C59.7358 4.8881 59.0371 5.10865 58.3513 5.36071C59.0501 5.10415 59.7618 4.8791 60.4649 4.63604L60.6819 4.56403C61.2114 4.38399 61.7279 4.19044 62.2573 4.02391H62.266L62.4179 3.97439L62.3441 4.0014C63.0993 3.76285 63.8675 3.5558 64.627 3.33975L64.5098 3.37576L64.8136 3.28574L65.0783 3.20922C65.5297 3.08319 65.9724 2.94366 66.4281 2.82213H66.4324L66.567 2.78613L66.5236 2.79963C67.3048 2.59708 68.099 2.42605 68.8889 2.24601L68.6111 2.30902C69.0104 2.2145 69.4053 2.11548 69.8089 2.02996L70.1909 1.93994C70.3558 1.90393 70.5164 1.85892 70.6769 1.82741L70.6813 1.82291L70.7985 1.80491L70.7811 1.80941C71.597 1.63837 72.426 1.50334 73.2549 1.35931L72.8122 1.43582C73.55 1.30529 74.2791 1.15226 75.0169 1.03973L75.0213 1.03523L75.0951 1.02623H75.1124C75.7721 0.922708 76.4448 0.855192 77.1088 0.765172C76.6618 0.823685 76.2061 0.877697 75.7591 0.940712C76.4188 0.84619 77.0871 0.765172 77.7511 0.684154L77.1088 0.765172C77.877 0.66615 78.6408 0.549124 79.4177 0.468105H79.422L79.5132 0.459103H79.5175C80.1729 0.391588 80.8369 0.35558 81.4966 0.306069L80.8499 0.35558C81.3967 0.31057 81.9392 0.26556 82.4861 0.229552L81.4966 0.306069C82.2908 0.243055 83.0807 0.162036 83.8792 0.121527H83.8836L83.9834 0.117026C84.6431 0.0810182 85.3114 0.0810182 85.9711 0.0630142L85.6022 0.0720162C86.57 0.0405091 87.5335 0 88.51 0C137.396 0 177.02 40.2886 177.02 89.9977C177.02 91.5056 176.977 93.0044 176.907 94.4943C176.881 94.9894 176.833 95.48 176.803 95.9706ZM37.1591 118.786C37.8318 121.802 40.796 123.692 43.7646 122.999C74.5699 115.843 100.731 118.759 121.511 131.677C124.115 133.288 127.514 132.465 129.102 129.805C129.479 129.177 129.731 128.477 129.842 127.746C129.954 127.016 129.924 126.269 129.753 125.551C129.583 124.833 129.275 124.158 128.849 123.565C128.422 122.972 127.886 122.473 127.271 122.099C103.939 107.597 75.0213 104.225 41.3038 112.066C40.603 112.219 39.9387 112.515 39.3495 112.937C38.7603 113.359 38.2581 113.899 37.8722 114.525C37.4864 115.15 37.2246 115.849 37.1021 116.581C36.9797 117.313 36.9991 118.062 37.1591 118.786ZM33.6263 92.4508C34.7374 96.1551 38.5913 98.2436 42.2456 97.1228C70.3862 88.4404 106.656 92.7434 130.439 107.615C133.681 109.636 137.934 108.605 139.93 105.31C140.403 104.525 140.72 103.65 140.862 102.736C141.004 101.822 140.969 100.888 140.758 99.9882C140.547 99.0886 140.164 98.242 139.633 97.4979C139.102 96.7539 138.433 96.1275 137.665 95.6555C110.34 78.5922 70.3818 73.7806 38.2311 83.7008C37.3719 83.957 36.5703 84.3875 35.8726 84.9673C35.175 85.5472 34.5953 86.2648 34.167 87.0786C33.7387 87.8925 33.4704 88.7864 33.3776 89.7085C33.2848 90.6307 33.3693 91.5628 33.6263 92.4508ZM149.313 65.3052C116.468 45.4782 64.4968 43.6148 33.2314 53.2695C32.2002 53.5757 31.238 54.0915 30.4008 54.7869C29.5637 55.4823 28.8682 56.3435 28.3549 57.3202C27.8415 58.297 27.5207 59.3698 27.4108 60.4764C27.301 61.583 27.4045 62.7011 27.7153 63.7658C29.039 68.2173 33.6611 70.7244 38.0401 69.3741C65.2736 60.9707 112.332 62.5596 140.868 79.785C142.755 80.9273 144.998 81.2583 147.117 80.7074C149.237 80.1564 151.064 78.7671 152.208 76.8368C152.762 75.8864 153.127 74.8305 153.281 73.7315C153.436 72.6324 153.376 71.5125 153.106 70.4377C152.837 69.3629 152.362 68.355 151.71 67.4735C151.059 66.592 150.244 65.8548 149.313 65.3052ZM88.2757 0H88.51C87.6594 0 86.8174 0.0405091 85.9711 0.0630142C86.7393 0.0405091 87.5031 0 88.2757 0Z" fill="white"/>
</svg>
